<svg xmlns="http://www.w3.org/2000/svg" width="256" height="256" viewBox="0 0 100 100"><rect width="100" height="100" rx="20" fill="#7d6ee7"></rect><path fill="#fff" d="M16.84 77.09L16.84 77.09Q16.39 77.27 15.49 77.49Q14.59 77.72 13.51 77.72L13.51 77.72Q9.55 77.72 9.55 74.39L9.55 74.39L9.55 22.73Q10.00 22.55 10.94 22.32Q11.89 22.10 12.97 22.10L12.97 22.10Q16.84 22.10 16.84 25.43L16.84 25.43L16.84 77.09ZM81.36 74.93L58.41 51.17L58.41 77.18Q57.88 77.36 56.97 77.58Q56.07 77.81 54.99 77.81L54.99 77.81Q51.03 77.81 51.03 74.48L51.03 74.48L51.03 22.73Q51.48 22.55 52.43 22.32Q53.38 22.10 54.45 22.10L54.45 22.10Q58.41 22.10 58.41 25.43L58.41 25.43L58.41 47.84L83.16 22.19Q85.50 22.28 86.67 23.36Q87.84 24.44 87.84 25.88L87.84 25.88Q87.84 27.05 87.22 28.04Q86.58 29.03 85.41 30.20L85.41 30.20L65.97 49.28Q74.16 57.29 80.15 63.54Q86.13 69.80 90.45 73.67L90.45 73.67Q90.28 75.65 89.24 76.77Q88.20 77.90 86.58 77.90L86.58 77.90Q85.06 77.90 83.84 77.05Q82.63 76.19 81.36 74.93L81.36 74.93Z"></path></svg>